<svg width="38" height="38" viewBox="0 0 38 38" fill="none" xmlns="http://www.w3.org/2000/svg">
<path d="M19.5007 14.4375H18.0208C16.3313 14.4375 15.4874 14.4375 14.9625 14.9625C14.4375 15.4874 14.4375 16.3313 14.4375 18.0208V33.25C14.4375 34.9395 14.4375 35.7834 14.9625 36.3084C15.4874 36.8333 16.3313 36.8333 18.0208 36.8333H18.9167C20.6062 36.8333 21.4501 36.8333 21.975 36.3084C22.5 35.7834 22.5 34.9395 22.5 33.25V26.9792C22.5 24.0104 23.446 21.6042 26.241 21.6042C27.6385 21.6042 28.7708 22.8082 28.7708 24.2917V32.3542C28.7708 34.0437 28.7708 34.8876 29.2958 35.4125C29.8207 35.9375 30.6646 35.9375 32.3542 35.9375H33.2482C34.936 35.9375 35.7816 35.9375 36.3066 35.4125C36.8297 34.8876 36.8315 34.0437 36.8315 32.356L36.8333 22.5C36.8333 18.0459 32.5978 14.4375 28.4071 14.4375C26.0206 14.4375 23.8921 15.6057 22.5 17.435C22.5 16.3062 22.5 15.7418 22.2545 15.3226C22.0993 15.0573 21.8784 14.8364 21.6131 14.6812C21.1939 14.4357 20.6295 14.4357 19.5007 14.4357M5.47917 14.4375H4.58333C2.89379 14.4375 2.04992 14.4375 1.52496 14.9625C1 15.4874 1 16.3313 1 18.0208V33.25C1 34.9395 1 35.7834 1.52496 36.3084C2.04992 36.8333 2.89379 36.8333 4.58333 36.8333H5.47917C7.16871 36.8333 8.01258 36.8333 8.53754 36.3084C9.0625 35.7834 9.0625 34.9395 9.0625 33.25V18.0208C9.0625 16.3313 9.0625 15.4874 8.53754 14.9625C8.01258 14.4375 7.16871 14.4375 5.47917 14.4375ZM9.0625 5.03125C9.0625 6.1004 8.63778 7.12577 7.88177 7.88177C7.12577 8.63778 6.1004 9.0625 5.03125 9.0625C3.9621 9.0625 2.93673 8.63778 2.18073 7.88177C1.42472 7.12577 1 6.1004 1 5.03125C1 3.9621 1.42472 2.93673 2.18073 2.18073C2.93673 1.42472 3.9621 1 5.03125 1C6.1004 1 7.12577 1.42472 7.88177 2.18073C8.63778 2.93673 9.0625 3.9621 9.0625 5.03125Z" stroke="#D1D5D6" stroke-width="2" stroke-linecap="round" stroke-linejoin="round"/>
</svg>
