<svg width="16" height="21" fill="none" xmlns="http://www.w3.org/2000/svg"><path d="M2 21c-.55 0-1.02-.196-1.412-.587A1.93 1.93 0 010 19V9c0-.55.196-1.02.588-1.412A1.93 1.93 0 012 7h1V5c0-1.383.488-2.562 1.463-3.537C5.438.488 6.617.001 8 0c1.383 0 2.562.487 3.538 1.463C12.514 2.439 13.001 3.618 13 5v2h1c.55 0 1.021.196 1.413.588.392.392.588.863.587 1.412v10a1.93 1.93 0 01-.587 1.413A1.92 1.92 0 0114 21H2zm6-5a1.93 1.93 0 001.413-.587A1.92 1.92 0 0010 14c0-.55-.196-1.021-.587-1.412A1.932 1.932 0 008 12a1.91 1.91 0 00-1.412.588c-.39.393-.586.864-.588 1.412a1.918 1.918 0 00.588 1.413c.394.394.865.59 1.412.587zM5 7h6V5c0-.833-.292-1.542-.875-2.125A2.893 2.893 0 008 2c-.833 0-1.542.292-2.125.875A2.893 2.893 0 005 5v2z" fill="#F0F0F0"/></svg>