<svg width="46" height="39" viewBox="0 0 46 39" fill="none" xmlns="http://www.w3.org/2000/svg">
<path d="M43.2009 33.1289C42.1829 35.2981 39.108 35.7448 34.9299 34.7142M43.2009 33.1289C44.3083 30.7686 42.7625 26.8354 39.3989 22.47M43.2009 33.1289C41.8899 35.9214 37.1821 35.8591 31.0884 33.4738M43.2009 33.1289C45.0043 29.2809 39.7604 21.2587 31.0884 13.9928M2.35495 4.11515C1.24965 6.47547 2.79332 10.4066 6.15699 14.7719M2.35495 4.11515C3.37298 1.94597 6.44785 1.49926 10.6259 2.52774M2.35495 4.11515C0.886071 7.24424 4.08145 13.1347 9.99227 19.1352M2.35495 4.11515C4.2435 0.0967728 13.1897 1.99792 23.1644 8.23325" stroke="#CCCCCC" stroke-width="3" stroke-linecap="round"/>
<path d="M28.281 23.8774L28.2808 23.8774C27.1134 23.4499 26.0533 22.7731 25.1742 21.894C24.2952 21.015 23.6184 19.9549 23.1909 18.7876C23.1909 18.7875 23.1909 18.7875 23.1909 18.7874L22.5517 17.0411C22.5514 17.0401 22.551 17.0392 22.5507 17.0383C22.3984 16.6205 22.1215 16.2596 21.7573 16.0043C21.3923 15.7486 20.9575 15.6113 20.5118 15.6113C20.0661 15.6113 19.6312 15.7486 19.2663 16.0043C18.9021 16.2596 18.6251 16.6206 18.4728 17.0384C18.4725 17.0393 18.4722 17.0402 18.4719 17.0411L17.8327 18.7874C17.8327 18.7875 17.8327 18.7875 17.8326 18.7876C17.4052 19.9549 16.7284 21.015 15.8494 21.894C14.9703 22.773 13.9102 23.4498 12.7429 23.8773C12.7429 23.8773 12.7428 23.8773 12.7427 23.8774L10.9964 24.5165C10.9955 24.5169 10.9946 24.5172 10.9937 24.5175C10.5759 24.6698 10.2149 24.9467 9.95969 25.3109C9.70389 25.6759 9.56667 26.1108 9.56667 26.5564C9.56667 27.0021 9.70389 27.437 9.95969 27.802C10.2149 28.1661 10.5758 28.4431 10.9936 28.5953C10.9945 28.5957 10.9955 28.596 10.9964 28.5963L12.7427 29.2355C12.7428 29.2355 12.7429 29.2356 12.7429 29.2356C13.9102 29.663 14.9703 30.3399 15.8494 31.2189C16.7284 32.0979 17.4053 33.1581 17.8327 34.3255L17.8328 34.3256L18.4719 36.0705C18.4722 36.0714 18.4725 36.0723 18.4729 36.0732C18.6251 36.491 18.9021 36.8519 19.2663 37.1072C19.6312 37.363 20.0661 37.5002 20.5118 37.5002C20.9575 37.5002 21.3923 37.363 21.7573 37.1072C22.1215 36.8519 22.3985 36.4909 22.5507 36.0731C22.5511 36.0722 22.5514 36.0714 22.5517 36.0705L23.1908 34.3256L23.1909 34.3255C23.6183 33.1581 24.2951 32.0979 25.1742 31.2189C26.0533 30.3398 27.1134 29.663 28.2808 29.2355L28.281 29.2355L30.0258 28.5963C30.0267 28.596 30.0276 28.5957 30.0284 28.5954C30.4463 28.4431 30.8073 28.1662 31.0625 27.802C31.3183 27.437 31.4556 27.0021 31.4556 26.5564C31.4556 26.1108 31.3183 25.6759 31.0625 25.3109C30.8073 24.9467 30.4463 24.6698 30.0286 24.5175C30.0276 24.5172 30.0267 24.5169 30.0258 24.5165L28.281 23.8774Z" stroke="#CCCCCC" stroke-width="3"/>
</svg>
