<svg width="46" height="40" viewBox="0 0 46 40" fill="none" xmlns="http://www.w3.org/2000/svg">
<path d="M43.2009 33.1289C42.1829 35.2981 39.108 35.7448 34.9299 34.7142M43.2009 33.1289C44.3083 30.7686 42.7625 26.8354 39.3989 22.47M43.2009 33.1289C41.8899 35.9214 37.1821 35.8591 31.0884 33.4738M43.2009 33.1289C45.0043 29.2809 39.7604 21.2587 31.0884 13.9928M2.35495 4.11515C1.24965 6.47547 2.79332 10.4066 6.15699 14.7719M2.35495 4.11515C3.37298 1.94597 6.44785 1.49926 10.6259 2.52774M2.35495 4.11515C0.886071 7.24424 4.08145 13.1347 9.99227 19.1352M2.35495 4.11515C4.2435 0.0967728 13.1897 1.99792 23.1644 8.23325" stroke="black" stroke-width="3.5" stroke-linecap="round"/>
<path d="M28.367 23.6427L28.3668 23.6426C27.2335 23.2277 26.2044 22.5706 25.351 21.7172C24.4977 20.8639 23.8407 19.8348 23.4257 18.7017C23.4257 18.7016 23.4256 18.7015 23.4256 18.7014L22.7867 16.9558C22.7864 16.9549 22.7861 16.9541 22.7858 16.9532C22.616 16.4871 22.3071 16.0844 21.9008 15.7996C21.4938 15.5144 21.0088 15.3613 20.5118 15.3613C20.0148 15.3613 19.5298 15.5144 19.1228 15.7996C18.7166 16.0843 18.4078 16.4868 18.238 16.9528C18.2376 16.9538 18.2372 16.9548 18.2369 16.9558L17.5979 18.7014C17.5979 18.7015 17.5979 18.7016 17.5979 18.7017C17.1829 19.8348 16.5259 20.8639 15.6726 21.7172C14.8193 22.5706 13.7902 23.2276 12.657 23.6425C12.6569 23.6426 12.6569 23.6426 12.6568 23.6426L10.9111 24.2815C10.9101 24.2819 10.9091 24.2823 10.9081 24.2826C10.4422 24.4524 10.0396 24.7613 9.75496 25.1674C9.4697 25.5744 9.31667 26.0594 9.31667 26.5564C9.31667 27.0535 9.4697 27.5384 9.75496 27.9455C10.0397 28.3517 10.4424 28.6607 10.9086 28.8304C10.9094 28.8307 10.9103 28.831 10.9111 28.8313L12.6568 29.4703C12.6569 29.4703 12.6569 29.4703 12.657 29.4704C13.7902 29.8853 14.8193 30.5423 15.6726 31.3956C16.5259 32.249 17.183 33.2782 17.5979 34.4114L17.598 34.4116L18.2369 36.1558C18.2373 36.1569 18.2377 36.1579 18.238 36.159C18.4079 36.6248 18.7167 37.0273 19.1228 37.3119C19.5298 37.5972 20.0148 37.7502 20.5118 37.7502C21.0088 37.7502 21.4938 37.5972 21.9008 37.3119C22.3069 37.0273 22.6158 36.6247 22.7856 36.1587C22.786 36.1578 22.7863 36.1568 22.7867 36.1558L23.4256 34.4116L23.4256 34.4114C23.8406 33.2782 24.4976 32.249 25.351 31.3956C26.2043 30.5423 27.2335 29.8852 28.3668 29.4703L28.367 29.4702L30.1111 28.8313C30.1121 28.831 30.1131 28.8306 30.1141 28.8303C30.58 28.6605 30.9826 28.3516 31.2673 27.9455C31.5525 27.5384 31.7056 27.0535 31.7056 26.5564C31.7056 26.0594 31.5525 25.5745 31.2673 25.1674C30.9826 24.7613 30.5802 24.4525 30.1144 24.2827C30.1133 24.2823 30.1122 24.2819 30.1111 24.2815L28.367 23.6427Z" stroke="black" stroke-width="3.5"/>
</svg>
