<svg width="33" height="26" viewBox="0 0 33 26" fill="none" xmlns="http://www.w3.org/2000/svg">
<path d="M1 4.41667C1 3.51051 1.35997 2.64147 2.00072 2.00072C2.64147 1.35997 3.51051 1 4.41667 1H28.3333C29.2395 1 30.1085 1.35997 30.7493 2.00072C31.39 2.64147 31.75 3.51051 31.75 4.41667V21.5C31.75 22.4062 31.39 23.2752 30.7493 23.9159C30.1085 24.5567 29.2395 24.9167 28.3333 24.9167H4.41667C3.51051 24.9167 2.64147 24.5567 2.00072 23.9159C1.35997 23.2752 1 22.4062 1 21.5V4.41667Z" stroke="#D1D5D6" stroke-width="2" stroke-linecap="round" stroke-linejoin="round"/>
<path d="M1 4.41602L16.375 14.666L31.75 4.41602" stroke="#D1D5D6" stroke-width="2" stroke-linecap="round" stroke-linejoin="round"/>
</svg>
