<svg width="31" height="27" viewBox="0 0 31 27" fill="none" xmlns="http://www.w3.org/2000/svg">
<path fill-rule="evenodd" clip-rule="evenodd" d="M15.5174 4.12493L13.9322 2.53972C13.1892 1.78672 12.3046 1.18813 11.3294 0.778411C10.3541 0.36869 9.30743 0.155933 8.24961 0.152389C7.19178 0.148845 6.1437 0.354585 5.16571 0.757762C4.18773 1.16094 3.29915 1.75359 2.55115 2.50159C1.80315 3.24959 1.2105 4.13817 0.807323 5.11615C0.404145 6.09414 0.198405 7.14222 0.201949 8.20005C0.205493 9.25788 0.418251 10.3046 0.827972 11.2798C1.23769 12.2551 1.83628 13.1397 2.58928 13.8826L15.4795 26.7728L15.4824 26.7699L15.5203 26.8078L28.4105 13.9176C29.1635 13.1747 29.7621 12.2901 30.1718 11.3148C30.5816 10.3396 30.7943 9.29288 30.7979 8.23505C30.8014 7.17722 30.5957 6.12914 30.1925 5.15115C29.7893 4.17317 29.1967 3.28459 28.4487 2.53659C27.7007 1.78859 26.8121 1.19594 25.8341 0.792762C24.8561 0.389585 23.808 0.183845 22.7502 0.187389C21.6924 0.190933 20.6457 0.40369 19.6704 0.813411C18.6952 1.22313 17.8106 1.82172 17.0676 2.57472L15.5174 4.12493ZM15.4824 22.6458L22.6807 15.446L24.7953 13.4043H24.7982L26.3484 11.8556C27.3057 10.8983 27.8435 9.59996 27.8435 8.24618C27.8435 6.8924 27.3057 5.59407 26.3484 4.6368C25.3912 3.67954 24.0929 3.14175 22.7391 3.14175C21.3853 3.14175 20.087 3.67954 19.1297 4.6368L15.5189 8.24909L15.5087 8.23889L11.8701 4.60326C10.9128 3.646 9.61452 3.10821 8.26074 3.10821C6.90696 3.10821 5.60863 3.646 4.65136 4.60326C3.6941 5.56053 3.15631 6.85886 3.15631 8.21264C3.15631 9.56641 3.6941 10.8647 4.65136 11.822L8.35553 15.5262L8.35699 15.5218L15.4824 22.6458Z" fill="#C1C1C1"/>
<rect x="7" y="14.8594" width="21.2871" height="12.1803" rx="5" transform="rotate(-44.2706 7 14.8594)" fill="#C1C1C1"/>
<rect x="7" y="14.8594" width="16.5885" height="12.1803" transform="rotate(-44.2706 7 14.8594)" fill="#C1C1C1"/>
<rect x="15.8396" y="23.2852" width="21.2871" height="12.1803" rx="5" transform="rotate(-138.081 15.8396 23.2852)" fill="#C1C1C1"/>
<rect x="15.8396" y="23.2852" width="16.5885" height="12.1803" transform="rotate(-138.081 15.8396 23.2852)" fill="#C1C1C1"/>
</svg>
