<svg width="485" height="322" viewBox="0 0 485 322" fill="none" xmlns="http://www.w3.org/2000/svg">
<path d="M132.497 157.587L130.314 165.887L132.119 168.354L135.44 169.422L138.754 168.309L166.261 148.183L167.771 145.038L167.692 142.327L147.624 114.898L144.855 113.718L142.369 114.226L140.299 115.303L137.3 117.144L136.347 120.161L138.828 119.585L141.734 120.519L144.095 123.746L156.178 140.26L156.738 142.327L156.504 144.83L152.508 148.482L139.892 157.713L136.65 159.357L134.298 158.746L132.497 157.587Z" fill="#EAEAEA"/>
<rect x="116.038" y="134.95" width="29.5552" height="32.4576" rx="5.4096" transform="rotate(-36.1916 116.038 134.95)" stroke="#EAEAEA" stroke-width="0.9408"/>
<rect x="109.482" y="137.705" width="44.4188" height="42.1008" rx="5.4096" transform="rotate(-36.1916 109.482 137.705)" stroke="#EAEAEA" stroke-width="0.9408"/>
<path d="M46.0011 270.995L48.4134 272.824L47.7295 272.663C47.8376 272.431 47.9987 272.275 48.2128 272.194C48.4171 272.109 48.6365 272.118 48.8708 272.221C49.1052 272.324 49.2618 272.48 49.3407 272.69C49.4195 272.899 49.4094 273.11 49.3102 273.323C49.2021 273.555 49.041 273.711 48.8269 273.792C48.6076 273.859 48.3856 273.843 48.161 273.744C48.0731 273.705 47.9972 273.666 47.9334 273.626C47.8696 273.587 47.7956 273.531 47.7114 273.459C47.6273 273.387 47.5282 273.297 47.414 273.188L45.6766 271.691L46.0011 270.995ZM47.1503 268.529L49.5626 270.359L48.8787 270.198C48.9868 269.966 49.148 269.809 49.362 269.729C49.5663 269.644 49.7857 269.653 50.02 269.756C50.2544 269.859 50.411 270.015 50.4899 270.224C50.5688 270.434 50.5586 270.645 50.4595 270.858C50.3513 271.09 50.1902 271.246 49.9761 271.327C49.7568 271.393 49.5348 271.377 49.3102 271.279C49.2223 271.24 49.1465 271.201 49.0826 271.161C49.0188 271.121 48.9448 271.065 48.8607 270.994C48.7765 270.922 48.6774 270.831 48.5632 270.723L46.8258 269.225L47.1503 268.529ZM61.1752 266.725C60.8687 267.382 60.4402 267.91 59.8896 268.309C59.3293 268.703 58.6867 268.933 57.9618 268.999C57.2317 269.051 56.4468 268.892 55.607 268.523C54.7672 268.154 54.1314 267.688 53.6995 267.125C53.2578 266.558 53.0095 265.943 52.9547 265.278C52.8999 264.613 53.0279 263.947 53.3389 263.28C53.6769 262.555 54.1448 261.98 54.7428 261.556C55.3354 261.117 56.0062 260.865 56.7551 260.798C57.4942 260.727 58.2494 260.86 59.0209 261.2C59.8021 261.543 60.409 262.008 60.8417 262.594C61.2743 263.18 61.5214 263.836 61.583 264.562C61.6492 265.279 61.5132 266 61.1752 266.725ZM62.1115 271.871L51.5801 267.242L52.0398 266.256L54.3541 267.273L55.8447 268.051L57.465 268.588L62.5915 270.842L62.1115 271.871ZM60.2186 266.391C60.471 265.85 60.5743 265.313 60.5284 264.78C60.4729 264.243 60.2791 263.75 59.947 263.302C59.6053 262.849 59.1366 262.491 58.5409 262.229C57.9452 261.967 57.3642 261.863 56.7979 261.917C56.2315 261.971 55.7222 262.155 55.2701 262.469C54.8179 262.783 54.4656 263.21 54.2132 263.752C53.9608 264.293 53.8602 264.837 53.9113 265.384C53.9669 265.921 54.1607 266.414 54.4927 266.862C54.8292 267.302 55.2953 267.652 55.8909 267.914C56.4866 268.176 57.0702 268.287 57.6418 268.247C58.2082 268.193 58.7175 268.009 59.1697 267.695C59.6166 267.367 59.9662 266.933 60.2186 266.391Z" fill="#D1D5D6"/>
<path d="M66.1583 256.4L58.6338 252.666L59.1385 251.703L61.188 252.72L60.7778 252.641C60.3133 252.149 60.0616 251.583 60.0227 250.945C59.9742 250.302 60.1405 249.616 60.5215 248.889L61.5104 249.379C61.4906 249.417 61.4708 249.455 61.451 249.493C61.4217 249.526 61.3971 249.561 61.3773 249.599C60.9667 250.383 60.8887 251.119 61.1435 251.805C61.3887 252.486 61.9556 253.047 62.8442 253.488L66.6853 255.394L66.1583 256.4Z" fill="#D1D5D6"/>
<path d="M73.2259 243.745C72.7862 244.501 72.2415 245.078 71.5917 245.474C70.9326 245.865 70.2292 246.066 69.4816 246.079C68.7246 246.087 67.9822 245.889 67.2543 245.486C66.5263 245.083 65.9708 244.575 65.5879 243.961C65.2102 243.337 65.0183 242.67 65.012 241.96C65.0017 241.235 65.1923 240.536 65.5838 239.863C65.9806 239.181 66.4905 238.664 67.1134 238.314C67.7324 237.95 68.415 237.773 69.1613 237.784C69.8982 237.79 70.6353 237.997 71.3725 238.405C71.4192 238.431 71.4678 238.464 71.5185 238.504C71.5651 238.53 71.6165 238.558 71.6725 238.589L67.9966 244.91L67.2546 244.499L70.6249 238.704L70.6936 239.254C70.1617 238.959 69.6234 238.814 69.0787 238.817C68.53 238.806 68.0264 238.929 67.5679 239.188C67.1093 239.446 66.7326 239.828 66.4377 240.336C66.1481 240.833 66.0047 241.345 66.0074 241.871C66.0102 242.396 66.1572 242.886 66.4484 243.34C66.7397 243.794 67.156 244.17 67.6973 244.47L67.8513 244.555C68.4112 244.865 68.9755 245.019 69.5443 245.017C70.109 245 70.6387 244.843 71.1334 244.543C71.6241 244.23 72.033 243.792 72.3601 243.23C72.6175 242.787 72.7768 242.333 72.838 241.867C72.9046 241.392 72.855 240.926 72.6892 240.468L73.6549 240.271C73.8592 240.811 73.9219 241.382 73.843 241.984C73.7694 242.577 73.5638 243.164 73.2259 243.745Z" fill="#D1D5D6"/>
<path d="M79.7234 233.203C79.3477 233.786 78.9105 234.287 78.4118 234.706C77.904 235.12 77.4275 235.396 76.9825 235.535L76.4971 234.635C76.9 234.482 77.3277 234.232 77.7802 233.885C78.2236 233.532 78.6043 233.109 78.9222 232.616C79.3557 231.943 79.5634 231.395 79.5453 230.97C79.5181 230.54 79.3274 230.216 78.9732 229.998C78.7099 229.836 78.4506 229.795 78.1955 229.876C77.9371 229.942 77.6848 230.087 77.4388 230.311C77.1836 230.53 76.9219 230.788 76.6535 231.086C76.3851 231.385 76.1077 231.677 75.8212 231.964C75.5404 232.242 75.2452 232.473 74.9356 232.658C74.6169 232.838 74.28 232.937 73.925 232.956C73.5757 232.967 73.1968 232.846 72.7881 232.594C72.3976 232.354 72.1173 232.031 71.9473 231.625C71.7772 231.22 71.7389 230.758 71.8322 230.239C71.9223 229.706 72.1609 229.139 72.5482 228.538C72.843 228.081 73.2014 227.663 73.6233 227.284C74.0362 226.9 74.4379 226.621 74.8284 226.449L75.3361 227.344C74.9158 227.523 74.5447 227.764 74.2227 228.067C73.8916 228.364 73.6104 228.692 73.3792 229.05C72.9688 229.687 72.7788 230.227 72.8093 230.672C72.8365 231.102 73.0227 231.424 73.3678 231.636C73.6402 231.804 73.9057 231.855 74.1641 231.789C74.4283 231.713 74.6925 231.569 74.9568 231.356C75.2177 231.129 75.4794 230.87 75.742 230.581C76.0104 230.283 76.2895 229.998 76.5793 229.725C76.8658 229.439 77.1639 229.203 77.4736 229.018C77.7799 228.818 78.1077 228.713 78.4569 228.703C78.8029 228.678 79.1711 228.786 79.5616 229.026C79.9794 229.284 80.2675 229.624 80.426 230.047C80.5811 230.456 80.6034 230.933 80.4927 231.479C80.3787 232.01 80.1223 232.585 79.7234 233.203Z" fill="#D1D5D6"/>
<path d="M132.954 143.075C132.407 143.483 131.82 143.792 131.195 144.002C130.564 144.206 130.003 144.283 129.512 144.234L129.279 143.163C129.736 143.195 130.237 143.131 130.782 142.97C131.327 142.809 131.828 142.558 132.287 142.216C132.704 141.905 133.007 141.606 133.193 141.318C133.38 141.03 133.472 140.759 133.47 140.506C133.462 140.246 133.377 140.011 133.215 139.802C133.027 139.56 132.793 139.425 132.513 139.399C132.241 139.368 131.94 139.406 131.612 139.512C131.286 139.606 130.942 139.734 130.582 139.896C130.221 140.058 129.85 140.212 129.467 140.359C129.085 140.494 128.71 140.587 128.34 140.64C127.977 140.687 127.625 140.651 127.284 140.532C126.938 140.407 126.619 140.155 126.325 139.778C126.043 139.414 125.879 139.009 125.835 138.563C125.793 138.105 125.903 137.635 126.166 137.153C126.43 136.658 126.877 136.177 127.507 135.708C127.924 135.397 128.38 135.143 128.875 134.945C129.369 134.747 129.845 134.637 130.304 134.615L130.593 135.676C130.128 135.703 129.69 135.8 129.28 135.967C128.864 136.128 128.496 136.328 128.174 136.567C127.77 136.868 127.477 137.165 127.296 137.46C127.114 137.755 127.027 138.032 127.035 138.292C127.049 138.547 127.138 138.779 127.3 138.988C127.494 139.238 127.727 139.378 128 139.409C128.279 139.435 128.579 139.397 128.901 139.297C129.229 139.191 129.576 139.06 129.941 138.905C130.302 138.743 130.67 138.591 131.046 138.449C131.429 138.303 131.802 138.206 132.165 138.159C132.535 138.107 132.891 138.14 133.231 138.259C133.572 138.377 133.886 138.622 134.174 138.993C134.452 139.35 134.612 139.757 134.654 140.215C134.691 140.666 134.574 141.141 134.303 141.641C134.034 142.128 133.584 142.607 132.954 143.075Z" fill="#D1D5D6"/>
<path d="M86.3841 223.377C85.9839 223.943 85.5257 224.425 85.0097 224.822C84.4848 225.214 83.9972 225.469 83.5467 225.589L83.1005 224.669C83.5095 224.533 83.9473 224.302 84.4141 223.974C84.8721 223.64 85.2704 223.234 85.609 222.755C86.0708 222.102 86.3017 221.562 86.3018 221.137C86.293 220.706 86.1165 220.374 85.7721 220.141C85.516 219.967 85.2588 219.915 85.0006 219.985C84.7396 220.04 84.4815 220.174 84.2261 220.388C83.962 220.595 83.6895 220.842 83.4087 221.129C83.1279 221.415 82.8383 221.695 82.5398 221.97C82.2475 222.236 81.9428 222.454 81.6256 222.626C81.2997 222.791 80.959 222.876 80.6036 222.88C80.2543 222.875 79.881 222.738 79.4837 222.469C79.1039 222.212 78.8379 221.877 78.6854 221.464C78.5329 221.052 78.5144 220.588 78.6299 220.074C78.7426 219.545 79.0053 218.989 79.4178 218.405C79.7318 217.961 80.1076 217.558 80.5452 217.198C80.974 216.832 81.3871 216.57 81.7846 216.415L82.2533 217.331C81.8259 217.493 81.4449 217.717 81.1103 218.006C80.7669 218.289 80.472 218.604 80.2258 218.953C79.7886 219.571 79.5758 220.103 79.5872 220.549C79.5959 220.98 79.7681 221.309 80.1036 221.536C80.3685 221.716 80.6315 221.778 80.8924 221.723C81.1595 221.659 81.4296 221.527 81.7026 221.325C81.9729 221.109 82.2454 220.862 82.52 220.584C82.8008 220.298 83.0918 220.025 83.3929 219.765C83.6913 219.491 83.9991 219.268 84.3163 219.096C84.6308 218.91 84.9626 218.819 85.3119 218.824C85.6585 218.814 86.0216 218.938 86.4013 219.195C86.8075 219.47 87.0807 219.823 87.2208 220.253C87.3583 220.668 87.3601 221.146 87.2262 221.686C87.0896 222.212 86.8089 222.776 86.3841 223.377Z" fill="#D1D5D6"/>
<path d="M99.4402 206.385C98.9384 206.994 98.3848 207.331 97.7794 207.395C97.174 207.459 96.5663 207.249 95.9563 206.765L89.7776 201.862L90.4997 200.985L96.6283 205.848C97.0127 206.153 97.3873 206.294 97.7521 206.27C98.1237 206.239 98.4587 206.042 98.757 205.679C99.0757 205.292 99.2274 204.882 99.212 204.447L100.105 204.646C100.122 204.945 100.066 205.247 99.9376 205.554C99.8162 205.853 99.6504 206.129 99.4402 206.385ZM91.0148 204.763L90.2753 204.176L93.5808 200.162L94.3203 200.749L91.0148 204.763Z" fill="#D1D5D6"/>
<path d="M101.256 191.256C101.714 190.749 102.214 190.394 102.758 190.189C103.302 189.97 103.871 189.928 104.465 190.066C105.067 190.195 105.674 190.526 106.284 191.059L109.96 194.269L109.199 195.112L105.607 191.976C104.94 191.393 104.288 191.121 103.65 191.159C103.012 191.182 102.424 191.49 101.888 192.084C101.488 192.527 101.23 192.996 101.114 193.49C100.998 193.968 101.03 194.45 101.211 194.934C101.391 195.402 101.723 195.847 102.205 196.268L105.531 199.173L104.77 200.016L95.8268 192.207L96.5882 191.364L100.939 195.163L100.464 195.045C100.184 194.448 100.113 193.819 100.249 193.159C100.377 192.492 100.713 191.858 101.256 191.256Z" fill="#D1D5D6"/>
<path d="M117.337 186.813C116.719 187.432 116.046 187.849 115.318 188.064C114.583 188.272 113.853 188.285 113.13 188.104C112.399 187.915 111.734 187.531 111.137 186.952C110.54 186.373 110.136 185.736 109.925 185.042C109.722 184.34 109.708 183.644 109.885 182.954C110.062 182.249 110.426 181.621 110.976 181.07C111.534 180.512 112.158 180.144 112.848 179.966C113.538 179.774 114.241 179.779 114.957 179.983C115.666 180.18 116.322 180.571 116.928 181.158C116.966 181.195 117.004 181.239 117.043 181.291C117.081 181.328 117.123 181.369 117.169 181.414L112.001 186.586L111.392 185.996L116.13 181.254L116.055 181.804C115.618 181.381 115.137 181.101 114.612 180.963C114.086 180.81 113.569 180.799 113.061 180.93C112.553 181.061 112.092 181.335 111.677 181.75C111.27 182.157 111 182.616 110.867 183.126C110.734 183.636 110.75 184.148 110.914 184.664C111.077 185.179 111.381 185.652 111.825 186.082L111.952 186.205C112.411 186.65 112.915 186.946 113.464 187.091C114.012 187.221 114.563 187.206 115.116 187.044C115.67 186.867 116.176 186.549 116.636 186.089C116.998 185.727 117.269 185.328 117.448 184.892C117.634 184.449 117.706 183.984 117.664 183.498L118.645 183.558C118.703 184.134 118.616 184.703 118.385 185.266C118.162 185.822 117.812 186.338 117.337 186.813Z" fill="#D1D5D6"/>
<path d="M184.513 134.4L183.81 133.125L185.988 126.457L187.205 125.78L185.75 130.636L185.464 131.418L184.513 134.4ZM184.823 136.718L178.863 126.45L179.856 125.898L185.815 136.165L184.823 136.718ZM190.513 133.551L185.258 131.477L185.46 130.358L191.729 132.874L190.513 133.551Z" fill="#D1D5D6"/>
<path d="M198.687 128.979C197.904 129.369 197.133 129.551 196.374 129.524C195.61 129.487 194.913 129.268 194.284 128.867C193.65 128.456 193.141 127.881 192.758 127.143C192.374 126.404 192.193 125.673 192.213 124.948C192.242 124.218 192.451 123.554 192.837 122.957C193.228 122.345 193.773 121.865 194.47 121.518C195.176 121.166 195.885 121.015 196.596 121.066C197.312 121.103 197.978 121.331 198.593 121.752C199.203 122.163 199.702 122.742 200.09 123.49C200.115 123.537 200.137 123.592 200.157 123.653C200.182 123.7 200.209 123.753 200.238 123.809L193.693 127.07L193.303 126.317L199.303 123.328L199.057 123.826C198.777 123.286 198.409 122.868 197.954 122.57C197.504 122.258 197.017 122.084 196.493 122.047C195.969 122.01 195.444 122.122 194.919 122.384C194.404 122.641 194.002 122.99 193.715 123.431C193.427 123.872 193.279 124.363 193.271 124.903C193.263 125.443 193.402 125.988 193.687 126.537L193.768 126.693C194.063 127.261 194.448 127.701 194.922 128.013C195.401 128.31 195.929 128.47 196.505 128.493C197.087 128.501 197.668 128.36 198.251 128.07C198.709 127.842 199.092 127.55 199.4 127.194C199.717 126.833 199.933 126.416 200.048 125.942L200.96 126.31C200.832 126.874 200.569 127.386 200.171 127.846C199.783 128.302 199.288 128.679 198.687 128.979Z" fill="#D1D5D6"/>
<path d="M209.069 128.045C208.707 128.203 208.334 128.296 207.948 128.325C207.573 128.349 207.215 128.296 206.874 128.165L207.007 127.182C207.286 127.281 207.561 127.33 207.83 127.329C208.113 127.334 208.396 127.274 208.68 127.15C209.022 127.001 209.271 126.776 209.427 126.475C209.597 126.179 209.686 125.744 209.695 125.171L209.683 123.831L209.728 123.62L209.668 115.144L210.695 114.696L210.734 124.944C210.744 125.533 210.684 126.031 210.552 126.437C210.431 126.839 210.245 127.165 209.995 127.414C209.749 127.672 209.44 127.883 209.069 128.045ZM209.903 124.469L202.777 118.154L203.862 117.68L210.193 123.329L209.903 124.469Z" fill="#D1D5D6"/>
<path d="M235.202 116.385C234.447 116.617 233.804 116.591 233.273 116.308C232.742 116.024 232.364 115.51 232.14 114.765L229.863 107.212L230.949 106.879L233.207 114.37C233.349 114.839 233.575 115.166 233.887 115.349C234.208 115.529 234.594 115.551 235.042 115.413C235.522 115.265 235.878 115.005 236.111 114.633L236.728 115.296C236.573 115.556 236.356 115.779 236.078 115.965C235.81 116.148 235.518 116.288 235.202 116.385ZM229.233 110.335L228.961 109.431L233.931 107.904L234.204 108.808L229.233 110.335Z" fill="#D1D5D6"/>
<path d="M246.531 113.197C245.746 113.4 244.995 113.407 244.276 113.218C243.566 113.015 242.952 112.651 242.435 112.123C241.916 111.585 241.555 110.913 241.352 110.106C241.148 109.288 241.148 108.523 241.354 107.809C241.56 107.094 241.929 106.481 242.46 105.97C242.992 105.458 243.655 105.099 244.45 104.894C245.256 104.686 246.013 104.678 246.72 104.869C247.439 105.059 248.051 105.418 248.558 105.948C249.075 106.476 249.436 107.148 249.641 107.966C249.843 108.773 249.842 109.538 249.639 110.263C249.443 110.974 249.076 111.592 248.537 112.117C247.995 112.632 247.326 112.992 246.531 113.197ZM246.286 112.219C246.875 112.067 247.364 111.803 247.753 111.427C248.141 111.041 248.403 110.576 248.542 110.034C248.689 109.478 248.683 108.885 248.525 108.254C248.364 107.612 248.09 107.088 247.702 106.681C247.325 106.272 246.877 105.997 246.357 105.856C245.835 105.704 245.285 105.703 244.707 105.852C244.129 106.001 243.646 106.269 243.259 106.656C242.869 107.032 242.6 107.492 242.451 108.038C242.301 108.583 242.307 109.176 242.468 109.818C242.626 110.449 242.9 110.973 243.291 111.39C243.678 111.797 244.133 112.076 244.655 112.227C245.174 112.369 245.718 112.366 246.286 112.219Z" fill="#D1D5D6"/>
<path d="M275.565 98.5856C276.239 98.4777 276.844 98.5161 277.378 98.7006C277.921 98.8729 278.369 99.2009 278.721 99.6846C279.084 100.167 279.325 100.809 279.444 101.61L280.162 106.437L279.041 106.617L278.339 101.901C278.209 101.025 277.9 100.399 277.413 100.024C276.935 99.6357 276.316 99.5024 275.558 99.6238C274.989 99.7148 274.512 99.9154 274.127 100.225C273.751 100.523 273.481 100.918 273.316 101.408C273.161 101.887 273.13 102.443 273.225 103.076L273.874 107.444L272.753 107.623L272.051 102.907C271.921 102.031 271.612 101.406 271.125 101.03C270.636 100.644 270.013 100.511 269.254 100.633C268.696 100.722 268.224 100.922 267.839 101.232C267.452 101.531 267.177 101.927 267.013 102.417C266.857 102.896 266.827 103.452 266.921 104.085L267.571 108.453L266.449 108.632L265.213 100.324L266.287 100.152L266.622 102.399L266.389 102.031C266.552 101.389 266.888 100.855 267.396 100.428C267.913 99.9887 268.556 99.7075 269.325 99.5845C270.136 99.4547 270.856 99.55 271.486 99.8704C272.115 100.18 272.574 100.728 272.863 101.513L272.395 101.41C272.536 100.696 272.882 100.084 273.432 99.5752C273.991 99.0537 274.702 98.7239 275.565 98.5856Z" fill="#D1D5D6"/>
<path d="M291.711 105.228L291.553 103.379L291.479 103.081L291.215 99.9882C291.154 99.2762 290.905 98.7488 290.469 98.4061C290.044 98.0624 289.438 97.9294 288.653 98.0071C288.111 98.0607 287.604 98.2019 287.131 98.4309C286.658 98.6599 286.265 98.94 285.951 99.2712L285.369 98.4767C285.763 98.0734 286.249 97.7466 286.827 97.4965C287.404 97.2357 288.021 97.0728 288.68 97.0077C289.762 96.9005 290.619 97.0891 291.249 97.5733C291.889 98.0459 292.255 98.8295 292.349 99.9242L292.794 105.121L291.711 105.228ZM288.836 105.593C288.209 105.655 287.654 105.608 287.17 105.453C286.695 105.285 286.32 105.033 286.045 104.696C285.769 104.348 285.611 103.935 285.57 103.457C285.533 103.021 285.6 102.618 285.772 102.247C285.953 101.865 286.268 101.544 286.717 101.285C287.176 101.015 287.803 100.84 288.599 100.762L291.481 100.476L291.553 101.321L288.703 101.603C287.897 101.683 287.346 101.882 287.052 102.201C286.769 102.518 286.646 102.889 286.682 103.315C286.723 103.793 286.941 104.157 287.337 104.407C287.733 104.657 288.266 104.749 288.935 104.683C289.571 104.62 290.106 104.423 290.538 104.09C290.979 103.747 291.283 103.288 291.448 102.714L291.769 103.47C291.604 104.044 291.27 104.522 290.768 104.904C290.276 105.285 289.632 105.514 288.836 105.593Z" fill="#D1D5D6"/>
<path d="M301 102.348L300.981 100.892L306.041 95.8657L307.431 95.7963L303.863 99.5143L303.242 100.09L301 102.348ZM300.181 104.568L299.767 92.7028L300.902 92.6462L301.316 104.511L300.181 104.568ZM306.685 104.243L303.033 100.052L303.737 99.1362L308.075 104.174L306.685 104.243Z" fill="#D1D5D6"/>
<path d="M317.488 104.133C316.614 104.134 315.848 103.954 315.193 103.592C314.537 103.219 314.028 102.713 313.664 102.074C313.301 101.423 313.126 100.682 313.139 99.8504C313.152 99.0185 313.339 98.2824 313.701 97.6421C314.074 97.0018 314.572 96.5 315.197 96.1368C315.832 95.7629 316.539 95.5755 317.317 95.5747C318.107 95.5739 318.802 95.7545 319.405 96.1165C320.018 96.4679 320.496 96.9686 320.837 97.6189C321.18 98.2584 321.344 98.9995 321.331 99.8421C321.33 99.8954 321.324 99.954 321.312 100.018C321.311 100.071 321.31 100.13 321.309 100.194L313.997 100.201L314.011 99.3536L320.715 99.3468L320.261 99.6832C320.271 99.0752 320.146 98.5368 319.887 98.0678C319.638 97.5881 319.292 97.2152 318.848 96.949C318.404 96.6828 317.889 96.55 317.302 96.5506C316.726 96.5512 316.207 96.685 315.744 96.9521C315.281 97.2192 314.918 97.5929 314.655 98.0731C314.391 98.5533 314.255 99.1027 314.245 99.7213L314.242 99.8972C314.232 100.537 314.362 101.102 314.632 101.593C314.912 102.072 315.301 102.45 315.798 102.727C316.306 102.993 316.885 103.126 317.536 103.125C318.048 103.125 318.524 103.034 318.964 102.852C319.415 102.67 319.803 102.393 320.129 102.019L320.758 102.754C320.377 103.203 319.903 103.544 319.334 103.78C318.775 104.015 318.16 104.133 317.488 104.133Z" fill="#D1D5D6"/>
<path d="M342.05 105.115L342.234 103.268L342.216 102.962L342.524 99.873C342.595 99.1618 342.447 98.5989 342.081 98.1842C341.726 97.7703 341.155 97.5316 340.368 97.4681C339.826 97.4243 339.301 97.4729 338.794 97.6138C338.287 97.7548 337.849 97.9601 337.479 98.2298L337.053 97.3448C337.514 97.0182 338.052 96.7835 338.666 96.6405C339.282 96.4869 339.919 96.4367 340.578 96.49C341.663 96.5775 342.47 96.9156 343.001 97.5041C343.544 98.0829 343.76 98.9189 343.651 100.012L343.134 105.202L342.05 105.115ZM339.155 104.961C338.528 104.911 337.99 104.766 337.543 104.526C337.107 104.277 336.784 103.962 336.576 103.582C336.368 103.19 336.288 102.756 336.336 102.278C336.379 101.843 336.519 101.458 336.756 101.125C337.005 100.781 337.374 100.522 337.863 100.347C338.363 100.163 339.012 100.103 339.81 100.167L342.696 100.4L342.612 101.244L339.758 101.014C338.95 100.949 338.372 101.046 338.024 101.307C337.687 101.569 337.498 101.912 337.455 102.337C337.408 102.814 337.556 103.211 337.899 103.528C338.243 103.845 338.75 104.03 339.419 104.084C340.057 104.136 340.619 104.036 341.105 103.787C341.602 103.527 341.985 103.13 342.253 102.596L342.43 103.396C342.162 103.931 341.746 104.341 341.182 104.628C340.628 104.915 339.953 105.026 339.155 104.961Z" fill="#D1D5D6"/>
<path d="M361.192 107.438L359.666 98.6532L360.738 98.8379L362.096 106.977L361.607 106.893L366.005 99.7453L366.966 99.911L368.371 108.058L367.882 107.974L372.249 100.821L373.273 100.998L368.539 108.704L367.483 108.522L366.1 100.849L366.432 100.906L362.248 107.62L361.192 107.438Z" fill="#D1D5D6"/>
<path d="M377.502 110.535L379.508 102.378L380.617 102.626L378.61 110.783L377.502 110.535ZM380.513 100.701C380.284 100.65 380.111 100.529 379.993 100.339C379.875 100.149 379.843 99.9449 379.896 99.7274C379.95 99.5099 380.072 99.346 380.264 99.2359C380.459 99.1155 380.67 99.0808 380.899 99.132C381.128 99.1832 381.303 99.2987 381.424 99.4786C381.544 99.6585 381.578 99.8572 381.524 100.075C381.468 100.303 381.343 100.477 381.148 100.597C380.964 100.72 380.753 100.755 380.513 100.701Z" fill="#D1D5D6"/>
<path d="M388.526 113.279C387.856 113.102 387.248 112.843 386.703 112.5C386.161 112.148 385.76 111.783 385.502 111.407L386.245 110.676C386.504 111.009 386.865 111.336 387.328 111.656C387.794 111.966 388.31 112.196 388.877 112.346C389.651 112.55 390.242 112.578 390.65 112.432C391.061 112.276 391.324 111.998 391.438 111.598C391.524 111.301 391.492 111.044 391.343 110.828C391.207 110.605 390.997 110.412 390.711 110.248C390.428 110.074 390.104 109.906 389.74 109.744C389.376 109.582 389.015 109.41 388.657 109.227C388.309 109.047 388.003 108.84 387.737 108.604C387.475 108.359 387.286 108.072 387.169 107.743C387.063 107.418 387.076 107.024 387.208 106.563C387.335 106.122 387.572 105.76 387.919 105.476C388.267 105.193 388.706 105.016 389.236 104.947C389.78 104.869 390.397 104.922 391.088 105.104C391.614 105.242 392.12 105.453 392.605 105.735C393.092 106.007 393.474 106.301 393.75 106.616L393.019 107.366C392.728 107.025 392.391 106.749 392.008 106.537C391.628 106.316 391.232 106.151 390.819 106.042C390.087 105.849 389.508 105.834 389.084 105.998C388.673 106.155 388.412 106.428 388.3 106.817C388.212 107.125 388.236 107.39 388.371 107.613C388.517 107.839 388.73 108.044 389.01 108.229C389.303 108.405 389.627 108.573 389.981 108.732C390.345 108.895 390.699 109.071 391.044 109.261C391.402 109.443 391.714 109.652 391.979 109.888C392.258 110.116 392.45 110.392 392.556 110.718C392.676 111.036 392.672 111.416 392.546 111.857C392.41 112.328 392.159 112.703 391.79 112.981C391.435 113.252 390.977 113.418 390.416 113.479C389.868 113.533 389.238 113.466 388.526 113.279Z" fill="#D1D5D6"/>
<path d="M404.588 109.035C405.239 109.24 405.766 109.546 406.169 109.952C406.585 110.352 406.844 110.848 406.948 111.439C407.061 112.034 406.987 112.715 406.726 113.483L405.156 118.103L404.073 117.762L405.607 113.247C405.892 112.409 405.892 111.71 405.609 111.151C405.34 110.586 404.824 110.182 404.061 109.942C403.491 109.762 402.953 109.721 402.447 109.819C401.954 109.909 401.517 110.135 401.136 110.495C400.768 110.849 400.481 111.329 400.275 111.935L398.854 116.116L397.771 115.774L401.59 104.533L402.673 104.875L400.815 110.344L400.741 109.868C401.191 109.372 401.75 109.051 402.42 108.904C403.092 108.747 403.815 108.791 404.588 109.035ZM413.203 117.119L415.512 109.628L416.793 110.032L414.042 117.383L413.203 117.119ZM412.524 120.511C412.3 120.44 412.132 120.303 412.021 120.101C411.923 119.891 411.911 119.68 411.983 119.468C412.058 119.246 412.196 119.088 412.397 118.995C412.611 118.894 412.83 118.88 413.054 118.95C413.288 119.024 413.45 119.159 413.541 119.356C413.646 119.545 413.66 119.751 413.585 119.973C413.513 120.185 413.373 120.348 413.166 120.461C412.972 120.568 412.758 120.584 412.524 120.511ZM417.947 113.784L419.566 111.209L419.472 111.883C419.238 111.81 419.063 111.676 418.949 111.484C418.848 111.284 418.838 111.063 418.92 110.821C419.003 110.578 419.146 110.405 419.35 110.302C419.564 110.202 419.783 110.187 420.007 110.258C420.241 110.331 420.402 110.471 420.489 110.678C420.591 110.878 420.602 111.094 420.523 111.326C420.495 111.407 420.463 111.486 420.425 111.563C420.387 111.641 420.336 111.726 420.271 111.817C420.22 111.901 420.145 112.006 420.046 112.132L418.68 114.015L417.947 113.784ZM420.541 114.602L422.16 112.027L422.066 112.701C421.832 112.628 421.657 112.494 421.543 112.302C421.442 112.102 421.432 111.881 421.515 111.639C421.597 111.396 421.74 111.223 421.944 111.12C422.158 111.02 422.377 111.005 422.601 111.076C422.835 111.149 422.996 111.29 423.083 111.496C423.185 111.696 423.196 111.912 423.117 112.144C423.089 112.225 423.057 112.304 423.019 112.382C422.982 112.459 422.93 112.544 422.865 112.635C422.814 112.719 422.739 112.824 422.64 112.95L421.274 114.833L420.541 114.602Z" fill="#D1D5D6"/>
</svg>
