<svg width="1440" height="995" viewBox="0 0 1440 995" fill="none" xmlns="http://www.w3.org/2000/svg">
<g clip-path="url(#clip0_928_2)">
<rect width="1440" height="995" fill="#050F11"/>
<circle cx="366.812" cy="233.323" r="3.17659" fill="#D1D5D6" fill-opacity="0.3"/>
<circle cx="499.773" cy="161.17" r="2.72279" fill="#D1D5D6" fill-opacity="0.3"/>
<circle cx="797.006" cy="102.632" r="2.26899" fill="#D1D5D6" fill-opacity="0.6"/>
<circle cx="940.404" cy="63.6049" r="2.26899" fill="#D1D5D6" fill-opacity="0.6"/>
<circle cx="843.746" cy="206.55" r="1.81519" fill="#D1D5D6" fill-opacity="0.1"/>
<circle cx="961.732" cy="261.004" r="2.72279" fill="#D1D5D6" fill-opacity="0.1"/>
<circle cx="1050.68" cy="189.307" r="2.72279" fill="#D1D5D6" fill-opacity="0.1"/>
<circle cx="979.884" cy="378.99" r="2.72279" fill="#D1D5D6" fill-opacity="0.1"/>
<circle cx="1154.14" cy="493.346" r="2.72279" fill="#D1D5D6" fill-opacity="0.4"/>
<circle cx="1253.07" cy="231.055" r="2.72279" fill="#D1D5D6" fill-opacity="0.6"/>
<circle cx="1255.79" cy="580.473" r="2.72279" fill="#D1D5D6" fill-opacity="0.4"/>
<circle cx="1290.72" cy="739.723" r="2.72279" fill="#D1D5D6" fill-opacity="0.4"/>
<circle cx="1171.38" cy="654.897" r="2.72279" fill="#D1D5D6" fill-opacity="0.6"/>
<circle cx="1116.93" cy="820.984" r="2.72279" fill="#D1D5D6" fill-opacity="0.3"/>
<circle cx="920.891" cy="547.801" r="2.72279" fill="#D1D5D6" fill-opacity="0.6"/>
<circle cx="1091.06" cy="285.963" r="1.36139" fill="#D1D5D6" fill-opacity="0.1"/>
<circle cx="857.36" cy="396.235" r="1.81519" fill="#D1D5D6" fill-opacity="0.6"/>
<circle cx="938.589" cy="431.178" r="1.36139" fill="#D1D5D6" fill-opacity="0.6"/>
<circle cx="1219.94" cy="358.572" r="1.36139" fill="#D1D5D6" fill-opacity="0.6"/>
<circle cx="1310.36" cy="287.361" r="1.36139" fill="#D1D5D6" fill-opacity="0.6"/>
<circle cx="1286.36" cy="140.361" r="1.36139" fill="#D1D5D6" fill-opacity="0.6"/>
<circle cx="841.024" cy="333.612" r="1.81519" fill="#D1D5D6" fill-opacity="0.1"/>
<circle cx="1291.18" cy="506.053" r="1.81519" fill="#D1D5D6" fill-opacity="0.4"/>
<circle cx="957.194" cy="589.55" r="1.81519" fill="#D1D5D6" fill-opacity="0.4"/>
<circle cx="1025.26" cy="476.102" r="1.81519" fill="#D1D5D6" fill-opacity="0.4"/>
<circle cx="1085.16" cy="714.796" r="1.81519" fill="#D1D5D6" fill-opacity="0.3"/>
<circle cx="1418.82" cy="764.815" r="1.81519" fill="#D1D5D6" fill-opacity="0.3"/>
<circle cx="1386.82" cy="520.815" r="1.81519" fill="#D1D5D6" fill-opacity="0.3"/>
<circle cx="1422.82" cy="209.815" r="1.81519" fill="#D1D5D6" fill-opacity="0.3"/>
<circle cx="1340.82" cy="202.815" r="1.81519" fill="#D1D5D6" fill-opacity="0.3"/>
<circle cx="1192.26" cy="780.141" r="1.81519" fill="#D1D5D6" fill-opacity="0.3"/>
<circle cx="1290.82" cy="838.815" r="1.81519" fill="#D1D5D6" fill-opacity="0.3"/>
<circle cx="1366.82" cy="405.815" r="1.81519" fill="#D1D5D6" fill-opacity="0.3"/>
<circle cx="903.647" cy="820.077" r="1.81519" fill="#D1D5D6" fill-opacity="0.6"/>
<circle cx="947.211" cy="729.317" r="1.81519" fill="#D1D5D6" fill-opacity="0.6"/>
<circle cx="822.872" cy="767.057" r="1.81519" fill="#D1D5D6" fill-opacity="0.4"/>
<circle cx="1060.66" cy="611.333" r="1.81519" fill="#D1D5D6" fill-opacity="0.6"/>
<circle cx="1081.53" cy="748.376" r="1.81519" fill="#D1D5D6" fill-opacity="0.3"/>
<circle cx="1028.89" cy="921.725" r="1.81519" fill="#D1D5D6" fill-opacity="0.6"/>
<circle cx="988.052" cy="803.739" r="1.81519" fill="#D1D5D6" fill-opacity="0.6"/>
<circle cx="1179.55" cy="878.163" r="1.81519" fill="#D1D5D6" fill-opacity="0.3"/>
<circle cx="873.697" cy="886.329" r="1.81519" fill="#D1D5D6" fill-opacity="0.6"/>
<circle cx="991.682" cy="678.493" r="1.81519" fill="#D1D5D6" fill-opacity="0.3"/>
<circle cx="822.872" cy="463.395" r="1.81519" fill="#D1D5D6" fill-opacity="0.6"/>
<circle cx="860.991" cy="547.8" r="1.81519" fill="#D1D5D6" fill-opacity="0.6"/>
<circle cx="718.954" cy="430.269" r="2.26899" fill="#D1D5D6" fill-opacity="0.6"/>
<circle cx="582.816" cy="841.404" r="2.26899" fill="#D1D5D6" fill-opacity="0.1"/>
<circle cx="731.66" cy="737.033" r="2.26899" fill="#D1D5D6" fill-opacity="0.6"/>
<circle cx="498.411" cy="803.287" r="2.26899" fill="#D1D5D6" fill-opacity="0.1"/>
<circle cx="718.046" cy="807.826" r="2.26899" fill="#D1D5D6" fill-opacity="0.6"/>
<circle cx="578.278" cy="690.746" r="2.26899" fill="#D1D5D6" fill-opacity="0.6"/>
<circle cx="614.582" cy="773.337" r="2.26899" fill="#D1D5D6" fill-opacity="0.1"/>
<circle cx="696.718" cy="337.241" r="1.81519" fill="#D1D5D6" fill-opacity="0.6"/>
<circle cx="735.29" cy="248.754" r="1.36139" fill="#D1D5D6" fill-opacity="0.6"/>
<circle cx="609.136" cy="278.703" r="2.26899" fill="#D1D5D6" fill-opacity="0.6"/>
<circle cx="564.665" cy="352.218" r="2.26899" fill="#D1D5D6" fill-opacity="0.6"/>
<circle cx="281.499" cy="852.296" r="3.17659" fill="#D1D5D6" fill-opacity="0.6"/>
<circle cx="87.1766" cy="594.177" r="3.17659" fill="#D1D5D6" fill-opacity="0.6"/>
<circle cx="455.755" cy="858.649" r="3.17659" fill="#D1D5D6" fill-opacity="0.6"/>
<circle cx="444.41" cy="554.154" r="2.72279" fill="#D1D5D6" fill-opacity="0.6"/>
<circle cx="281.045" cy="742.024" r="2.72279" fill="#D1D5D6" fill-opacity="0.6"/>
<circle cx="582.816" cy="509.23" r="2.26899" fill="#D1D5D6" fill-opacity="0.2"/>
<circle cx="356.828" cy="491.078" r="2.26899" fill="#D1D5D6" fill-opacity="0.4"/>
<circle cx="267.885" cy="580.927" r="2.26899" fill="#D1D5D6" fill-opacity="0.4"/>
<circle cx="179.85" cy="656.257" r="2.26899" fill="#D1D5D6" fill-opacity="0.6"/>
<circle cx="479.806" cy="647.634" r="1.81519" fill="#D1D5D6" fill-opacity="0.6"/>
<circle cx="595.069" cy="903.573" r="1.81519" fill="#D1D5D6" fill-opacity="0.6"/>
<circle cx="213.884" cy="875.44" r="1.81519" fill="#D1D5D6" fill-opacity="0.6"/>
<circle cx="145.815" cy="732.038" r="1.81519" fill="#D1D5D6" fill-opacity="0.6"/>
<circle cx="115.815" cy="442.815" r="1.81519" fill="#D1D5D6" fill-opacity="0.6"/>
<circle cx="79.8152" cy="522.815" r="1.81519" fill="#D1D5D6" fill-opacity="0.6"/>
<circle cx="348.66" cy="346.773" r="1.36139" fill="#D1D5D6" fill-opacity="0.3"/>
<circle cx="257.902" cy="360.385" r="1.36139" fill="#D1D5D6" fill-opacity="0.6"/>
<circle cx="422.174" cy="441.158" r="1.36139" fill="#D1D5D6" fill-opacity="0.3"/>
<circle cx="489.335" cy="406.672" r="1.36139" fill="#D1D5D6" fill-opacity="0.6"/>
<circle cx="375.887" cy="625.4" r="1.36139" fill="#D1D5D6" fill-opacity="0.6"/>
<circle cx="770.686" cy="538.272" r="1.36139" fill="#D1D5D6" fill-opacity="0.6"/>
<circle cx="773.409" cy="581.836" r="1.36139" fill="#D1D5D6" fill-opacity="0.6"/>
<circle cx="564.665" cy="614.508" r="1.36139" fill="#D1D5D6" fill-opacity="0.6"/>
<circle cx="708.97" cy="529.195" r="1.36139" fill="#D1D5D6" fill-opacity="0.2"/>
<circle cx="669.944" cy="604.525" r="1.36139" fill="#D1D5D6" fill-opacity="0.6"/>
<circle cx="662.684" cy="656.256" r="1.36139" fill="#D1D5D6" fill-opacity="0.6"/>
<circle cx="475.722" cy="294.133" r="1.36139" fill="#D1D5D6" fill-opacity="0.6"/>
<circle cx="385.871" cy="159.809" r="1.36139" fill="#D1D5D6" fill-opacity="0.6"/>
<circle cx="298.743" cy="75.4024" r="1.36139" fill="#D1D5D6" fill-opacity="0.6"/>
<circle cx="259.717" cy="182.5" r="1.36139" fill="#D1D5D6" fill-opacity="0.6"/>
<circle cx="61.3614" cy="179.361" r="1.36139" fill="#D1D5D6" fill-opacity="0.6"/>
<circle cx="206.623" cy="178.413" r="1.81519" fill="#D1D5D6" fill-opacity="0.6"/>
<circle cx="173.95" cy="46.8152" r="1.81519" fill="#D1D5D6" fill-opacity="0.6"/>
<circle cx="409.922" cy="317.276" r="1.81519" fill="#D1D5D6" fill-opacity="0.3"/>
<circle cx="175.765" cy="313.643" r="1.81519" fill="#D1D5D6" fill-opacity="0.6"/>
<circle cx="119.815" cy="255.815" r="1.81519" fill="#D1D5D6" fill-opacity="0.6"/>
<circle cx="244.742" cy="458.858" r="1.81519" fill="#D1D5D6" fill-opacity="0.6"/>
<circle cx="81.8152" cy="378.815" r="1.81519" fill="#D1D5D6" fill-opacity="0.6"/>
<circle cx="210.254" cy="545.077" r="1.81519" fill="#D1D5D6" fill-opacity="0.4"/>
<g filter="url(#filter0_f_928_2)">
<ellipse cx="711.5" cy="434.5" rx="718.5" ry="436.5" fill="url(#paint0_radial_928_2)"/>
</g>
<g filter="url(#filter1_f_928_2)">
<path d="M590.707 1065.79C695.066 1032.95 751.796 985.225 749.416 955.023C742.23 863.831 550.045 795.994 427.373 769.01C238.146 727.385 -3.7174 802.863 -29.7157 900.372C-56.7824 1001.89 5.42061 1115.76 95.0659 1139.66C269.197 1186.09 406.8 1139.8 452.42 1118.1C519.444 1090.57 572.538 1071.76 590.707 1065.79Z" fill="#2E0378"/>
<path d="M590.707 1065.79C695.066 1032.95 751.796 985.225 749.416 955.023C742.23 863.831 550.045 795.994 427.373 769.01C238.146 727.385 -3.7174 802.863 -29.7157 900.372C-56.7824 1001.89 5.42061 1115.76 95.0659 1139.66C269.197 1186.09 406.8 1139.8 452.42 1118.1C519.444 1090.57 572.538 1071.76 590.707 1065.79Z" stroke="black"/>
</g>
<g filter="url(#filter2_f_928_2)">
<path d="M599.119 -160.401C511.884 -134.048 464.619 -95.245 466.771 -70.4896C473.27 4.25572 634.597 60.8422 737.485 83.5944C896.196 118.691 1098.38 58.1293 1119.64 -21.6172C1141.78 -104.641 1089.08 -198.257 1013.87 -218.31C867.775 -257.261 752.765 -220.061 714.669 -202.527C658.677 -180.325 614.306 -165.192 599.119 -160.401Z" fill="#2E0378"/>
<path d="M599.119 -160.401C511.884 -134.048 464.619 -95.245 466.771 -70.4896C473.27 4.25572 634.597 60.8422 737.485 83.5944C896.196 118.691 1098.38 58.1293 1119.64 -21.6172C1141.78 -104.641 1089.08 -198.257 1013.87 -218.31C867.775 -257.261 752.765 -220.061 714.669 -202.527C658.677 -180.325 614.306 -165.192 599.119 -160.401Z" stroke="black"/>
</g>
<g filter="url(#filter3_f_928_2)">
<ellipse cx="711.5" cy="438.5" rx="718.5" ry="436.5" fill="#01080A"/>
</g>
</g>
<defs>
<filter id="filter0_f_928_2" x="-707" y="-702" width="2837" height="2273" filterUnits="userSpaceOnUse" color-interpolation-filters="sRGB">
<feFlood flood-opacity="0" result="BackgroundImageFix"/>
<feBlend mode="normal" in="SourceGraphic" in2="BackgroundImageFix" result="shape"/>
<feGaussianBlur stdDeviation="350" result="effect1_foregroundBlur_928_2"/>
</filter>
<filter id="filter1_f_928_2" x="-336.605" y="456.811" width="1386.59" height="1003.29" filterUnits="userSpaceOnUse" color-interpolation-filters="sRGB">
<feFlood flood-opacity="0" result="BackgroundImageFix"/>
<feBlend mode="normal" in="SourceGraphic" in2="BackgroundImageFix" result="shape"/>
<feGaussianBlur stdDeviation="150" result="effect1_foregroundBlur_928_2"/>
</filter>
<filter id="filter2_f_928_2" x="166.201" y="-535.949" width="1259.03" height="930.234" filterUnits="userSpaceOnUse" color-interpolation-filters="sRGB">
<feFlood flood-opacity="0" result="BackgroundImageFix"/>
<feBlend mode="normal" in="SourceGraphic" in2="BackgroundImageFix" result="shape"/>
<feGaussianBlur stdDeviation="150" result="effect1_foregroundBlur_928_2"/>
</filter>
<filter id="filter3_f_928_2" x="-507" y="-498" width="2437" height="1873" filterUnits="userSpaceOnUse" color-interpolation-filters="sRGB">
<feFlood flood-opacity="0" result="BackgroundImageFix"/>
<feBlend mode="normal" in="SourceGraphic" in2="BackgroundImageFix" result="shape"/>
<feGaussianBlur stdDeviation="250" result="effect1_foregroundBlur_928_2"/>
</filter>
<radialGradient id="paint0_radial_928_2" cx="0" cy="0" r="1" gradientUnits="userSpaceOnUse" gradientTransform="translate(711.5 434.5) rotate(90) scale(436.5 718.5)">
<stop stop-color="#D9D9D9" stop-opacity="0"/>
<stop offset="0.535" stop-color="#656565" stop-opacity="0"/>
<stop offset="0.755" stop-color="#353535" stop-opacity="0.3"/>
<stop offset="1"/>
</radialGradient>
<clipPath id="clip0_928_2">
<rect width="1440" height="995" fill="white"/>
</clipPath>
</defs>
</svg>
